<svg xmlns="http://www.w3.org/2000/svg" viewBox="0 0 512 512">
  <!-- Poppycock brand mark, maskable layout: full-bleed background, mark inside the 80% safe zone. -->
  <rect width="512" height="512" fill="#F4EEFB"/>
  <defs>
    <filter id="soft" x="-30%" y="-30%" width="160%" height="160%">
      <feGaussianBlur stdDeviation="9"/>
    </filter>
  </defs>
  <g transform="translate(256 256) scale(0.78) translate(-256 -256)">
    <ellipse cx="256" cy="452" rx="148" ry="20" fill="#4D2C7A" opacity="0.16" filter="url(#soft)"/>
    <g transform="translate(260 96) rotate(8)">
      <rect x="6" y="18" width="200" height="240" rx="44" fill="#381B5E"/>
      <rect x="0" y="0" width="200" height="240" rx="44" fill="#E8DDF7" stroke="#59268E" stroke-width="16"/>
      <rect x="28" y="82" width="52" height="36" rx="13" fill="#3F2B66"/>
      <rect x="120" y="82" width="52" height="36" rx="13" fill="#3F2B66"/>
      <rect x="76" y="88" width="48" height="11" rx="5.5" fill="#3F2B66"/>
      <path d="M 98 170 C 82 154 58 152 44 161 C 35 167 31 162 33 153" fill="none" stroke="#FF9E79" stroke-width="16" stroke-linecap="round"/>
      <path d="M 102 170 C 118 154 142 152 156 161 C 165 167 169 162 167 153" fill="none" stroke="#FF9E79" stroke-width="16" stroke-linecap="round"/>
      <rect x="120" y="-40" width="30" height="11" rx="5.5" fill="#FF9E79" transform="rotate(25 135 -34.5)"/>
      <rect x="152" y="-32" width="24" height="11" rx="5.5" fill="#FF9E79" transform="rotate(55 164 -26.5)"/>
    </g>
    <g transform="translate(52 166) rotate(-10)">
      <rect x="6" y="18" width="200" height="240" rx="44" fill="#381B5E"/>
      <rect x="0" y="0" width="200" height="240" rx="44" fill="#FFF5D2" stroke="#59268E" stroke-width="16"/>
      <rect x="58" y="79" width="16" height="34" rx="8" fill="#3F2B66"/>
      <rect x="126" y="79" width="16" height="34" rx="8" fill="#3F2B66"/>
      <path d="M 56 150 Q 100 196 144 150" fill="none" stroke="#6BC397" stroke-width="18" stroke-linecap="round"/>
      <rect x="24" y="-40" width="30" height="11" rx="5.5" fill="#6BC397" transform="rotate(-55 39 -34.5)"/>
      <rect x="52" y="-34" width="24" height="11" rx="5.5" fill="#6BC397" transform="rotate(-25 64 -28.5)"/>
    </g>
  </g>
</svg>